<svg width="150" height="32" viewBox="0 0 150 32" fill="none" xmlns="http://www.w3.org/2000/svg">
<path fill-rule="evenodd" clip-rule="evenodd" d="M34.0117 1.612L40.1059 0.206665L38.2239 6.42282L36.6063 4.57542L27.5176 13.2592V4.95011L2.70069 27.4634H0.493164L28.9846 1.61667V9.80719L35.6289 3.45902L34.0117 1.612ZM27.482 27.7353V16.6996L34.0116 10.4189V27.7353H27.482ZM25.3055 27.7353V10.4189L5.71679 27.7353H25.3055Z" fill="#165DFF"/>
<path d="M146.414 24.104C146.88 24.104 147.319 24.0574 147.73 23.964C148.159 23.8707 148.588 23.7494 149.018 23.6V27.072C148.514 27.296 147.935 27.4827 147.282 27.632C146.628 27.7814 145.854 27.856 144.958 27.856C144.006 27.856 143.156 27.7067 142.41 27.408C141.682 27.0907 141.103 26.5587 140.674 25.812C140.263 25.0654 140.058 24.0107 140.058 22.648V15.732H138.098V12.26H140.45V9.01202H144.762V12.204H148.85V15.732H144.762V22.48C144.762 23.0214 144.911 23.432 145.21 23.712C145.508 23.9734 145.91 24.104 146.414 24.104Z" fill="#165DFF"/>
<path d="M136.338 22.928C136.338 24.44 135.806 25.644 134.742 26.54C133.697 27.4173 132.054 27.856 129.814 27.856C128.731 27.856 127.779 27.7907 126.958 27.66C126.155 27.5293 125.343 27.296 124.522 26.96V23.152C125.418 23.5627 126.351 23.88 127.322 24.104C128.293 24.3093 129.114 24.412 129.786 24.412C130.495 24.412 131.009 24.3187 131.326 24.132C131.643 23.9453 131.802 23.684 131.802 23.348C131.802 23.1053 131.718 22.8907 131.55 22.704C131.401 22.5173 131.083 22.312 130.598 22.088C130.131 21.8453 129.431 21.528 128.498 21.136C127.583 20.744 126.827 20.3427 126.23 19.932C125.651 19.5213 125.213 19.036 124.914 18.476C124.634 17.8973 124.494 17.1787 124.494 16.32C124.494 14.864 125.054 13.772 126.174 13.044C127.313 12.2973 128.815 11.924 130.682 11.924C131.671 11.924 132.605 12.0267 133.482 12.232C134.359 12.4373 135.265 12.7547 136.198 13.184L134.854 16.376C134.089 16.04 133.342 15.7693 132.614 15.564C131.905 15.3587 131.261 15.256 130.682 15.256C129.599 15.256 129.058 15.536 129.058 16.096C129.058 16.3013 129.133 16.4973 129.282 16.684C129.45 16.852 129.758 17.0387 130.206 17.244C130.673 17.4493 131.345 17.7387 132.222 18.112C133.099 18.4667 133.846 18.8493 134.462 19.26C135.078 19.652 135.545 20.1373 135.862 20.716C136.179 21.2947 136.338 22.032 136.338 22.928Z" fill="#165DFF"/>
<path d="M115.043 11.924C117.208 11.924 118.926 12.5213 120.195 13.716C121.464 14.892 122.099 16.628 122.099 18.924V21.108H112.383C112.42 22.116 112.747 22.9187 113.363 23.516C113.979 24.1133 114.856 24.412 115.995 24.412C116.966 24.412 117.852 24.3187 118.655 24.132C119.476 23.9453 120.316 23.6467 121.175 23.236V26.736C120.41 27.128 119.598 27.408 118.739 27.576C117.899 27.7627 116.854 27.856 115.603 27.856C114.054 27.856 112.672 27.576 111.459 27.016C110.264 26.456 109.322 25.5973 108.631 24.44C107.959 23.264 107.623 21.78 107.623 19.988C107.623 18.1773 107.931 16.6747 108.547 15.48C109.163 14.2853 110.022 13.3987 111.123 12.82C112.243 12.2227 113.55 11.924 115.043 11.924ZM115.127 15.2C114.399 15.2 113.792 15.4333 113.307 15.9C112.84 16.348 112.56 17.0667 112.467 18.056H117.759C117.74 17.2533 117.516 16.5813 117.087 16.04C116.658 15.48 116.004 15.2 115.127 15.2Z" fill="#165DFF"/>
<path d="M95.7817 27.576L89.9297 12.204H94.8577L97.6577 21.108C97.751 21.4253 97.835 21.8173 97.9097 22.284C98.003 22.732 98.059 23.1426 98.0777 23.516H98.1897C98.2084 23.124 98.255 22.7133 98.3297 22.284C98.423 21.8546 98.5257 21.472 98.6377 21.136L101.494 12.204H106.394L100.542 27.576H95.7817Z" fill="#165DFF"/>
<path d="M82.5349 11.924C84.1589 11.924 85.4656 12.372 86.4549 13.268C87.4629 14.1453 87.9669 15.5733 87.9669 17.552V27.576H83.2629V18.868C83.2629 17.804 83.0856 17.0013 82.7309 16.46C82.3762 15.9187 81.8162 15.648 81.0509 15.648C79.9122 15.648 79.1376 16.0773 78.7269 16.936C78.3162 17.776 78.1109 18.9893 78.1109 20.576V27.576H73.3789V12.204H77.6069V14.192H77.8309C78.3162 13.4453 78.9696 12.8853 79.7909 12.512C80.6122 12.12 81.5269 11.924 82.5349 11.924Z" fill="#165DFF"/>
<path d="M70.4367 27.576H60.7207V24.86H63.1847V10.3H60.7207V7.58398H70.4367V10.3H67.9727V24.86H70.4367V27.576Z" fill="#165DFF"/>
<path d="M54.588 27.576L53.356 23.292H46.44L45.208 27.576H40L46.804 7.5H52.908L59.796 27.576H54.588ZM51.116 15.312C51.0227 14.976 50.892 14.528 50.724 13.968C50.5747 13.3893 50.416 12.8013 50.248 12.204C50.0987 11.6067 49.9773 11.1027 49.884 10.692C49.8093 11.1027 49.688 11.616 49.52 12.232C49.3707 12.8293 49.2213 13.4173 49.072 13.996C48.9227 14.556 48.8013 14.9947 48.708 15.312L47.532 19.316H52.292L51.116 15.312Z" fill="#165DFF"/>
</svg>
